<svg width="60" height="60" viewBox="0 0 60 60" fill="none" xmlns="http://www.w3.org/2000/svg">
<path d="M30.0001 8.73145L30.3004 8.04418C30.1089 7.96053 29.8913 7.96053 29.6998 8.04418L30.0001 8.73145ZM55.9976 23.3343L56.1971 24.0573C56.477 23.98 56.6872 23.7481 56.7366 23.462C56.786 23.1758 56.6658 22.8869 56.428 22.7202L55.9976 23.3343ZM4.00269 23.3343L3.5722 22.7202C3.33441 22.8868 3.21421 23.1758 3.26363 23.4619C3.31305 23.7481 3.52321 23.98 3.80313 24.0573L4.00269 23.3343ZM30.0001 33.7217L29.6467 34.3831C29.8675 34.5012 30.1327 34.5012 30.3536 34.3831L30.0001 33.7217ZM50.5787 41.235L50.8676 41.9271C51.1531 41.8079 51.3361 41.5257 51.3285 41.2165L50.5787 41.235ZM30 52.259L29.5841 52.8831C29.836 53.0509 30.164 53.0509 30.4159 52.8831L30 52.259ZM9.42132 41.235L8.67155 41.2165C8.66393 41.5257 8.84693 41.8079 9.13236 41.9271L9.42132 41.235ZM10.6483 25.3667L10.8873 24.6558L10.6483 25.3667ZM49.3517 25.3668L49.1127 24.6559L49.3517 25.3668ZM16.875 28.3112L16.4792 27.6742C16.2589 27.811 16.125 28.0519 16.125 28.3112H16.875ZM30.3247 21.7844C30.6981 21.605 30.8554 21.1569 30.6761 20.7836C30.4967 20.4102 30.0486 20.2529 29.6753 20.4322L30.3247 21.7844ZM16.875 39.3751L17.625 39.3751V39.3751H16.875ZM11.9513 49.4513C11.6584 49.7442 11.6584 50.2191 11.9513 50.512C12.2442 50.8049 12.719 50.8049 13.0119 50.512L11.9513 49.4513ZM17.625 35.6251C17.625 35.2108 17.2892 34.8751 16.875 34.8751C16.4608 34.8751 16.125 35.2108 16.125 35.6251H17.625ZM29.6998 9.41871C38.8353 13.4101 47.4941 18.2898 55.5671 23.9485L56.428 22.7202C48.2741 17.0047 39.5282 12.076 30.3004 8.04418L29.6998 9.41871ZM4.43317 23.9485C12.5062 18.2897 21.165 13.4101 30.3004 9.41871L29.6998 8.04418C20.4721 12.076 11.7261 17.0047 3.5722 22.7202L4.43317 23.9485ZM30.4159 52.8831C36.829 48.6094 43.6725 44.9311 50.8676 41.9271L50.2897 40.5429C43.0049 43.5843 36.0764 47.3083 29.5841 51.6349L30.4159 52.8831ZM9.13236 41.9271C16.3275 44.9311 23.171 48.6094 29.5841 52.8831L30.4159 51.6349C23.9236 47.3083 16.9951 43.5843 9.71028 40.5429L9.13236 41.9271ZM10.1711 41.2534C10.3026 35.9158 10.7143 30.6479 11.392 25.4639L9.90464 25.2695C9.22013 30.5056 8.80435 35.8261 8.67155 41.2165L10.1711 41.2534ZM3.80313 24.0573C6.0304 24.672 8.23307 25.3461 10.4094 26.0776L10.8873 24.6558C8.68502 23.9155 6.45607 23.2334 4.20224 22.6113L3.80313 24.0573ZM10.4094 26.0776C17.0876 28.3223 23.5174 31.1082 29.6467 34.3831L30.3536 33.0602C24.1516 29.7463 17.6452 26.9273 10.8873 24.6558L10.4094 26.0776ZM48.608 25.464C49.2857 30.648 49.6974 35.9158 49.8289 41.2534L51.3285 41.2165C51.1957 35.8261 50.7799 30.5057 50.0954 25.2696L48.608 25.464ZM30.3536 34.3831C36.4828 31.1082 42.9125 28.3224 49.5907 26.0777L49.1127 24.6559C42.3549 26.9274 35.8486 29.7464 29.6467 33.0602L30.3536 34.3831ZM49.5907 26.0777C51.767 25.3462 53.9698 24.6721 56.1971 24.0573L55.798 22.6114C53.5441 23.2335 51.3151 23.9156 49.1127 24.6559L49.5907 26.0777ZM18 35.6251C18 36.2464 17.4963 36.7501 16.875 36.7501V38.2501C18.3247 38.2501 19.5 37.0748 19.5 35.6251H18ZM16.875 36.7501C16.2537 36.7501 15.75 36.2464 15.75 35.6251H14.25C14.25 37.0748 15.4253 38.2501 16.875 38.2501V36.7501ZM15.75 35.6251C15.75 35.0037 16.2537 34.5001 16.875 34.5001V33.0001C15.4253 33.0001 14.25 34.1753 14.25 35.6251H15.75ZM16.875 34.5001C17.4963 34.5001 18 35.0037 18 35.6251H19.5C19.5 34.1753 18.3247 33.0001 16.875 33.0001V34.5001ZM17.2708 28.9483C21.4767 26.335 25.8333 23.9417 30.3247 21.7844L29.6753 20.4322C25.1348 22.6131 20.7307 25.0325 16.4792 27.6742L17.2708 28.9483ZM16.125 28.3112V37.5001H17.625V28.3112H16.125ZM16.125 39.3751C16.125 43.0231 14.7339 46.6687 11.9513 49.4513L13.0119 50.512C16.0872 47.4367 17.625 43.4047 17.625 39.3751L16.125 39.3751ZM17.625 39.3751V35.6251H16.125V39.3751H17.625Z" fill="#0F172A"/>
</svg>
