<svg width="60" height="60" viewBox="0 0 60 60" fill="none" xmlns="http://www.w3.org/2000/svg">
<path d="M7.5 32.8125C7.5 31.2592 8.7592 30 10.3125 30H15.9375C17.4908 30 18.75 31.2592 18.75 32.8125V49.6875C18.75 51.2408 17.4908 52.5 15.9375 52.5H10.3125C8.7592 52.5 7.5 51.2408 7.5 49.6875V32.8125Z" stroke="#0F172A" stroke-width="1.5" stroke-linecap="round" stroke-linejoin="round"/>
<path d="M24.375 21.5625C24.375 20.0092 25.6342 18.75 27.1875 18.75H32.8125C34.3658 18.75 35.625 20.0092 35.625 21.5625V49.6875C35.625 51.2408 34.3658 52.5 32.8125 52.5H27.1875C25.6342 52.5 24.375 51.2408 24.375 49.6875V21.5625Z" stroke="#0F172A" stroke-width="1.5" stroke-linecap="round" stroke-linejoin="round"/>
<path d="M41.25 10.3125C41.25 8.7592 42.5092 7.5 44.0625 7.5H49.6875C51.2408 7.5 52.5 8.7592 52.5 10.3125V49.6875C52.5 51.2408 51.2408 52.5 49.6875 52.5H44.0625C42.5092 52.5 41.25 51.2408 41.25 49.6875V10.3125Z" stroke="#0F172A" stroke-width="1.5" stroke-linecap="round" stroke-linejoin="round"/>
</svg>
