<svg width="60" height="60" viewBox="0 0 60 60" fill="none" xmlns="http://www.w3.org/2000/svg">
<g clip-path="url(#clip0_609_21)">
<path d="M18.75 20.625H41.25M18.75 28.125H30M5.625 31.8984C5.625 35.9011 8.43353 39.3851 12.3936 39.9674C15.2149 40.3822 18.0681 40.6989 20.9496 40.9138C21.8251 40.9791 22.6254 41.4381 23.1124 42.1686L30 52.5L36.8875 42.1688C37.3745 41.4383 38.1748 40.9792 39.0503 40.9139C41.9318 40.6991 44.785 40.3825 47.6062 39.9677C51.5664 39.3855 54.375 35.9014 54.375 31.8986V16.8514C54.375 12.8487 51.5664 9.36457 47.6062 8.78234C41.8601 7.93753 35.9815 7.5 30.0007 7.5C24.0194 7.5 18.1403 7.93761 12.3937 8.78256C8.43354 9.36484 5.625 12.8489 5.625 16.8516V31.8984Z" stroke="#0F172A" stroke-width="1.5" stroke-linecap="round" stroke-linejoin="round"/>
</g>
<defs>
<clipPath id="clip0_609_21">
<rect width="60" height="60" fill="white"/>
</clipPath>
</defs>
</svg>
