<svg width="62" height="62" viewBox="0 0 62 62" fill="none" xmlns="http://www.w3.org/2000/svg">
<path d="M58.4998 38.1667V52.3333C58.4998 55.98 55.8765 59.12 52.2599 59.6C45.3032 60.5233 38.2066 61 31 61C23.7934 61 16.6968 60.5233 9.74013 59.6C6.12349 59.12 3.50017 55.98 3.50017 52.3333V38.1667M58.4998 38.1667C59.2913 37.4788 59.9246 36.6278 60.3562 35.6721C60.7877 34.7164 61.0073 33.6786 60.9998 32.63V20.02C60.9998 16.4167 58.4398 13.3033 54.8765 12.77C51.1009 12.2047 47.3063 11.7745 43.4999 11.48M58.4998 38.1667C57.8532 38.7167 57.0998 39.15 56.2565 39.4333C48.1106 42.1361 39.5826 43.5093 31 43.5C22.1734 43.5 13.6834 42.07 5.74349 39.4333C4.92102 39.1597 4.15925 38.7296 3.50017 38.1667M3.50017 38.1667C2.70865 37.4788 2.07538 36.6278 1.64384 35.6721C1.21231 34.7164 0.992726 33.6786 1.00018 32.63V20.02C1.00018 16.4167 3.56017 13.3033 7.12348 12.77C10.8991 12.2047 14.6937 11.7744 18.5001 11.48M43.4999 11.48V8.5C43.4999 6.51088 42.7097 4.60322 41.3032 3.1967C39.8967 1.79018 37.9891 1 36 1H26C24.0109 1 22.1033 1.79018 20.6968 3.1967C19.2902 4.60322 18.5001 6.51088 18.5001 8.5V11.48M43.4999 11.48C35.179 10.8369 26.821 10.8369 18.5001 11.48M31 33.5H31.0267V33.5267H31V33.5Z" stroke="black" stroke-width="1.5" stroke-linecap="round" stroke-linejoin="round"/>
</svg>
